<?xml version="1.0" encoding="iso-8859-1"?>
<!-- Generator: Adobe Illustrator 19.0.0, SVG Export Plug-In . SVG Version: 6.00 Build 0)  -->
<svg version="1.1" id="Capa_1" xmlns="http://www.w3.org/2000/svg" xmlns:xlink="http://www.w3.org/1999/xlink" x="0px" y="0px"
	 viewBox="0 0 512.001 512.001" style="enable-background:new 0 0 512.001 512.001;" xml:space="preserve">
<polyline style="fill:#666666;" points="504.393,445.835 102.025,445.835 76.677,445.835 7.604,445.835 7.604,409.845 
	504.393,409.845 "/>
<g>
	<circle style="fill:#4D4D4D;" cx="423.396" cy="391.602" r="18.248"/>
	<circle style="fill:#4D4D4D;" cx="191.244" cy="391.602" r="18.248"/>
	<circle style="fill:#4D4D4D;" cx="251.061" cy="391.602" r="18.248"/>
</g>
<path style="fill:#A6C8E8;" d="M149.668,353.579H99.827l0,0c-44.898,0-82.104-34.816-85.081-79.615l-7.14-107.432h51.395
	l46.567,74.53h295.747c21.493,0,41.683,10.304,54.292,27.709l10.666,14.721h3.072c9.682,0,18.442,3.924,24.779,10.26
	c6.518,6.518,10.481,15.582,10.261,25.577c-0.42,19.159-16.568,34.251-35.731,34.251H260.3"/>
<path style="fill:#81A9C9;" d="M468.657,330.388H260.3H149.668H99.827l0,0c-44.898,0-82.104-34.816-85.081-79.615l-5.599-84.241
	H7.607l7.14,107.432c2.977,44.799,40.183,79.615,85.081,79.615l0,0h49.841H260.3h208.355c19.163,0,35.312-15.093,35.731-34.251
	c0.096-4.376-0.61-8.573-1.981-12.456C497.498,320.64,484.054,330.388,468.657,330.388z"/>
<path style="fill:#F2F2F2;" d="M466.275,283.491h-40.037c-13.758,0-24.921-11.163-24.921-24.921v-17.509
	c21.494,0,41.68,10.301,54.292,27.709L466.275,283.491z"/>
<path style="fill:#81A9C9;" d="M289.576,310.999H152.712c-11.758,0-21.29,9.532-21.29,21.29l0,0c0,11.758,9.532,21.29,21.29,21.29
	h136.863c11.758,0,21.29-9.532,21.29-21.29l0,0C310.866,320.532,301.334,310.999,289.576,310.999z"/>
<path style="fill:#4694E0;" d="M186.286,184.78h-75.085c-12.02,0-21.765-9.744-21.765-21.765V87.931
	c0-12.02,9.744-21.765,21.765-21.765h75.085c12.02,0,21.765,9.744,21.765,21.765v75.085
	C208.051,175.036,198.306,184.78,186.286,184.78z"/>
<path d="M7.16,274.469c3.231,48.624,43.936,86.714,92.668,86.714h49.841c0.351,0,0.693-0.032,1.032-0.078
	c0.665,0.046,1.335,0.078,2.011,0.078h107.583c0.002,0,0.003,0,0.005,0h208.355c23.391,0,42.83-18.702,43.333-41.689
	c0.259-11.758-4.177-22.81-12.487-31.12c-7.86-7.86-18.252-12.274-29.341-12.48l-8.395-11.586
	c-13.996-19.318-36.594-30.852-60.45-30.852H109.786l-44.335-70.955c-1.389-2.223-3.826-3.575-6.448-3.575H7.607
	c-2.105,0-4.114,0.872-5.553,2.408c-1.438,1.537-2.175,3.6-2.035,5.7L7.16,274.469z M449.452,273.232l1.923,2.654h-25.141
	c-9.545,0-17.311-7.765-17.311-17.311v-9.404C425.035,251.267,439.809,259.922,449.452,273.232z M99.123,245.091
	c1.389,2.223,3.826,3.575,6.448,3.575h288.146v9.909c0,17.931,14.588,32.518,32.518,32.518h40.012c0.01,0,0.019,0.002,0.029,0.002
	h3.072c7.331,0,14.221,2.853,19.402,8.033c5.348,5.348,8.202,12.462,8.037,20.033c-0.324,14.785-12.943,26.814-28.129,26.814
	H315.016c2.202-4.077,3.454-8.737,3.454-13.686c0-15.932-12.962-28.894-28.894-28.894h-23.315c-4.199,0-7.604,3.405-7.604,7.604
	c0,4.199,3.405,7.604,7.604,7.604h23.315c7.546,0,13.686,6.14,13.686,13.686c0,7.546-6.14,13.686-13.686,13.686H152.712
	c-7.546,0-13.686-6.14-13.686-13.686c0-7.546,6.14-13.686,13.686-13.686h88.201c4.199,0,7.604-3.405,7.604-7.604
	c0-4.199-3.405-7.604-7.604-7.604h-88.201c-15.932,0-28.894,12.962-28.894,28.894c0,4.949,1.252,9.61,3.454,13.686H99.827
	c-40.752,0-74.792-31.852-77.494-72.515l-1.447-21.768h25.376c2.248,0,4.381-0.995,5.826-2.716c1.445-1.722,2.053-3.996,1.663-6.209
	l-12.112-68.631h13.148L99.123,245.091z M26.197,174.136l11.002,62.348H19.877l-4.143-62.348H26.197z"/>
<path d="M96.494,284.559c1.232,2.918,4.217,4.847,7.398,4.685c3.035-0.155,5.761-2.175,6.779-5.037
	c1.018-2.859,0.212-6.156-2.045-8.196c-2.516-2.273-6.309-2.581-9.175-0.788C96.317,277.185,95.164,281.165,96.494,284.559z"/>
<path d="M254.533,289.254c4.197,0,7.604-3.407,7.604-7.604c0-4.207-3.407-7.604-7.604-7.604s-7.604,3.396-7.604,7.604
	C246.93,285.847,250.336,289.254,254.533,289.254z"/>
<path d="M284.736,289.254c4.207,0,7.604-3.407,7.604-7.604c0-4.207-3.396-7.604-7.604-7.604c-4.197,0-7.604,3.396-7.604,7.604
	C277.132,285.847,280.539,289.254,284.736,289.254z"/>
<path d="M314.949,289.254c4.197,0,7.594-3.407,7.594-7.604c0-4.207-3.396-7.604-7.594-7.604c-4.207,0-7.604,3.396-7.604,7.604
	C307.345,285.847,310.742,289.254,314.949,289.254z"/>
<path d="M194.128,289.254c4.197,0,7.604-3.407,7.604-7.604c0-4.207-3.407-7.604-7.604-7.604s-7.604,3.396-7.604,7.604
	C186.524,285.847,189.93,289.254,194.128,289.254z"/>
<path d="M133.722,289.254c4.197,0,7.604-3.407,7.604-7.604c0-4.207-3.407-7.604-7.604-7.604s-7.604,3.396-7.604,7.604
	C126.119,285.847,129.525,289.254,133.722,289.254z"/>
<path d="M224.331,289.254c4.197,0,7.604-3.407,7.604-7.604c0-4.207-3.407-7.604-7.604-7.604s-7.604,3.396-7.604,7.604
	C216.727,285.847,220.133,289.254,224.331,289.254z"/>
<path d="M163.925,289.254c4.197,0,7.604-3.407,7.604-7.604c0-4.207-3.407-7.604-7.604-7.604s-7.604,3.396-7.604,7.604
	C156.321,285.847,159.728,289.254,163.925,289.254z"/>
<path d="M340.924,287.967c2.716,1.787,6.327,1.674,8.899-0.329c2.508-1.954,3.545-5.356,2.539-8.374
	c-1.025-3.073-3.963-5.224-7.215-5.218c-3.165,0.006-6.039,2.021-7.129,4.987C336.828,282.265,338.032,286.062,340.924,287.967z"/>
<path d="M7.604,417.449h496.789c4.199,0,7.604-3.405,7.604-7.604c0-4.199-3.405-7.604-7.604-7.604h-57.445
	c1.474-3.248,2.302-6.851,2.302-10.644c0-14.255-11.598-25.852-25.853-25.852c-14.255,0-25.852,11.597-25.852,25.852
	c0,3.794,0.828,7.396,2.302,10.644h-125.24c1.474-3.248,2.302-6.851,2.302-10.644c0-14.255-11.597-25.852-25.852-25.852
	c-14.256,0-25.853,11.597-25.853,25.852c0,3.794,0.828,7.396,2.302,10.644h-12.715c1.474-3.248,2.302-6.851,2.302-10.644
	c0-14.255-11.597-25.852-25.853-25.852c-14.255,0-25.852,11.597-25.852,25.852c0,3.794,0.828,7.396,2.302,10.644h-13.203v-27.372
	c0-4.199-3.405-7.604-7.604-7.604s-7.604,3.405-7.604,7.604v27.372H7.604c-4.199,0-7.604,3.405-7.604,7.604
	C0,414.045,3.405,417.449,7.604,417.449z M412.754,391.597c0-5.869,4.775-10.644,10.644-10.644c5.87,0,10.645,4.775,10.645,10.644
	c0,5.869-4.775,10.644-10.645,10.644C417.529,402.241,412.754,397.466,412.754,391.597z M240.412,391.597
	c0-5.869,4.775-10.644,10.645-10.644c5.869,0,10.644,4.775,10.644,10.644c0,5.869-4.775,10.644-10.644,10.644
	C245.188,402.241,240.412,397.466,240.412,391.597z M180.598,391.597c0-5.869,4.775-10.644,10.644-10.644
	c5.87,0,10.645,4.775,10.645,10.644c0,5.869-4.775,10.644-10.645,10.644C185.373,402.241,180.598,397.466,180.598,391.597z"/>
<path d="M504.393,438.231H102.025c-4.199,0-7.604,3.405-7.604,7.604c0,4.199,3.405,7.604,7.604,7.604h402.368
	c4.199,0,7.604-3.405,7.604-7.604C511.997,441.636,508.592,438.231,504.393,438.231z"/>
<path d="M76.677,438.231H7.604c-4.199,0-7.604,3.405-7.604,7.604c0,4.199,3.405,7.604,7.604,7.604h69.073
	c4.199,0,7.604-3.405,7.604-7.604C84.281,441.636,80.876,438.231,76.677,438.231z"/>
<path d="M111.202,192.384h28.081v26.359c0,4.199,3.405,7.604,7.604,7.604c4.199,0,7.604-3.405,7.604-7.604v-26.359h31.797
	c16.194,0,29.369-13.175,29.369-29.369V87.931c0-16.194-13.175-29.369-29.369-29.369h-75.085c-16.194,0-29.369,13.175-29.369,29.369
	v75.085C81.832,179.21,95.007,192.384,111.202,192.384z M97.04,87.931c0-7.809,6.353-14.162,14.162-14.162h75.085
	c7.809,0,14.162,6.353,14.162,14.162v75.085c0,7.809-6.353,14.162-14.162,14.162h-75.085c-7.809,0-14.162-6.353-14.162-14.162
	V87.931z"/>
<path d="M129.608,164.252c4.199,0,7.604-3.405,7.604-7.604v-11.405h14.066c16.142,0,29.274-13.132,29.274-29.274
	s-13.132-29.274-29.274-29.274h-21.67c-4.199,0-7.604,3.405-7.604,7.604v43.34v19.009
	C122.004,160.847,125.409,164.252,129.608,164.252z M165.345,115.969c0,7.756-6.31,14.066-14.066,14.066h-14.066v-28.132h14.066
	C159.034,101.903,165.345,108.213,165.345,115.969z"/>
<g>
</g>
<g>
</g>
<g>
</g>
<g>
</g>
<g>
</g>
<g>
</g>
<g>
</g>
<g>
</g>
<g>
</g>
<g>
</g>
<g>
</g>
<g>
</g>
<g>
</g>
<g>
</g>
<g>
</g>
</svg>
